<svg width="222" height="222" viewBox="0 0 222 222" fill="none" xmlns="http://www.w3.org/2000/svg">
<path d="M205.072 106.108C204.633 102.843 204.413 98.5781 204.202 95.2725C204.137 94.2402 204.751 94.6566 204.723 93.9357C204.664 92.5281 204.136 91.2975 204.059 89.8985C204.034 89.4323 204.984 89.796 204.938 89.3083C204.675 86.6302 203.777 84.2501 203.099 81.6235C199.74 68.6676 193.19 56.715 184.253 46.2913C181.326 42.852 177.817 38.4573 173.934 35.7452C173.483 35.4297 173.273 36.209 173.154 36.1905C171.308 35.9013 172.657 35.0768 171.933 34.2614C169.058 31.0378 165.095 28.3024 161.397 26.5001C159.821 25.7388 160.618 27.8746 159.499 26.3025C159.419 26.1947 160.187 25.7262 159.808 25.4202C158.947 24.722 157.053 23.8873 156.324 23.4576C154.92 22.6216 154.672 22.513 153.279 21.8576C151.376 20.9604 149.209 19.6289 147.018 18.9966C146.552 18.8647 146.868 19.8386 146.102 19.6999C145.34 19.5575 143.462 18.8313 142.869 18.4426C142.279 18.05 142.749 17.541 142.678 17.3658C142.085 15.8826 139.32 16.8264 139.026 16.7933C133.548 15.9962 129.112 14.1582 123.938 13.5323C120.044 13.0684 115.868 13.147 112.135 13.1147C112.104 13.1143 112.073 13.114 112.042 13.1137C107.571 13.0727 103.768 12.886 99.4458 13.5038C98.9923 13.5695 99.644 14.4358 99.0949 14.5184C93.2597 15.4059 87.5519 16.5893 81.7389 17.7992C81.1537 17.9214 81.6277 16.8959 81.0242 16.9729C77.3642 17.4069 71.1813 18.1961 70.7564 22.4106C68.4736 23.3084 65.7708 24.5405 63.488 24.9973C62.0147 25.2967 62.7719 23.82 61.4341 25.041C61.1342 25.3169 61.9793 25.7358 61.5037 26.0968C59.5067 27.6141 57.0778 28.88 55.2948 30.6344C54.9344 30.9921 55.4559 31.4912 55.4149 31.6765C55.0569 33.1903 52.4796 32.9898 52.0539 33.1645C48.8776 34.4443 47.2396 36.305 44.9546 38.3581C44.4251 38.8375 45.6884 38.9665 45.2065 39.4507C42.7051 41.9525 40.1137 44.5149 37.5181 46.8595C36.9391 47.381 36.7923 46.3128 36.4832 46.5368C35.1245 47.5467 36.0693 48.8055 34.8339 49.8093C34.5751 50.0243 34.1492 49.4466 34.052 49.4462C32.5201 49.4483 33.3487 51.1509 33.2343 51.3619C31.7941 54.1002 29.2169 54.6947 27.7832 57.3572C27.6167 57.6747 28.7876 57.4746 28.2786 58.3347C24.8987 64.0685 21.5444 70.2132 18.5429 76.1658C18.0777 77.0937 17.7201 76.1732 17.6214 76.2044C16.0539 76.768 17.4232 78.0027 17.3731 78.3369C16.9302 80.9762 14.8427 82.9717 16.3181 85.2523C13.3879 93.779 12.8169 102.768 12.1501 111.69C11.9854 113.912 11.8124 116.096 11.5991 118.345C11.5876 118.489 10.7345 118.287 10.7153 118.576C10.5045 122.062 11.7639 121.297 13.5876 123.351C14.0448 123.856 12.3647 125.807 12.2511 125.987C11.8164 126.615 10.4999 126.216 10.4271 126.417C9.87846 128.096 13.9071 127.227 14.2584 129.248C14.263 129.313 13.4682 129.178 13.4245 129.362C13.2865 129.94 13.6815 130.413 13.5263 130.983C13.1674 132.281 11.295 133.155 12.8532 134.745C13.0567 134.941 15.2426 134.072 15.5732 135.882C15.6919 136.606 16.5949 139.744 16.728 140.653C16.8495 141.569 15.9466 141.192 15.9341 141.263C15.7286 143.938 15.0563 143.164 14.0566 144.84C13.0808 146.531 16.2805 145.048 16.8168 145.397C17.3485 145.744 17.2111 147.742 17.1132 148.271C17.0099 148.797 16.3588 148.441 16.3544 148.877C16.3646 151.775 18.4044 149.325 19.2455 149.922C21.2348 151.285 19.5018 153.775 20.0959 155.615C20.2559 156.107 20.6079 155.474 20.8561 155.86C21.835 157.383 21.6106 158.73 23.2444 160.18C23.514 160.425 25.6694 161.085 25.2177 162.574C25.1522 162.788 24.3733 162.743 24.6399 163.48C25.0337 164.58 26.0172 166.43 26.8804 167.345C27.5162 168.019 27.8314 166.561 28.1863 167.695C28.3464 168.2 27.3004 167.762 27.6489 168.686C27.9919 169.61 29.433 171.599 30.0106 172.331C30.5834 173.065 30.928 172.171 31.0167 172.199C31.5352 172.378 32.9188 173.536 33.016 173.656C37.9136 179.723 42.112 185.906 48.4014 190.441C48.8926 190.794 49.1153 189.876 49.1958 189.923C51.0227 190.921 48.3372 191.69 49.0217 193.191C49.9189 191.692 50.3986 192.473 51.6838 193.192C52.3039 193.536 52.3941 192.767 52.4866 192.751C53.9177 192.539 53.7312 194.018 53.7312 194.348C53.725 195.558 55.0133 195.025 55.0274 195.835C55.0511 196.644 53.5946 196.837 54.7822 197.622C55.4544 197.325 55.4925 195.402 56.5177 195.769C60.3256 197.186 66.1524 201.856 69.0668 203.305C71.9192 204.778 72.9345 205.054 74.5824 205.964C77.593 207.57 76.8728 205.997 79.0042 206.181C81.1431 206.337 79.2471 208.809 79.3295 209.511C79.4155 210.21 79.9361 209.693 80.1864 210.142C80.4386 210.59 79.524 210.75 80.3342 211.148C81.1541 211.557 83.8044 211.159 84.2798 210.595C85.2907 209.411 84.6536 207.713 86.7154 208.801C86.8351 208.864 86.2242 209.509 86.6938 209.712C90.4219 211.299 94.5465 212.143 98.4777 213.198C99.02 213.345 98.4131 214.138 98.7297 214.232C102.05 215.193 101.029 213.593 102.99 212.158C102.384 214.263 103.277 215.699 105.9 215.873C107.476 215.969 107.243 215.01 108.268 214.387C108.572 214.2 109.647 214.878 109.857 214.438C110.538 212.998 109.547 211.379 112.135 212.037C112.136 212.037 112.137 212.038 112.138 212.038C112.178 212.049 112.159 212.154 112.135 212.289C112.103 212.465 112.061 212.691 112.135 212.817C112.164 212.867 112.211 212.901 112.284 212.909C114.864 213.204 115.13 211.684 117.836 211.365C119.962 211.117 123.837 211.678 126.3 211.468C126.575 213.884 128.866 212.982 129.506 211.165C131.094 210.96 132.758 210.532 134.323 210.418C134.86 210.378 134.674 211.14 134.756 211.199C136.04 212.128 136.35 210.375 136.666 210.232C140.136 208.724 143.446 208.997 146.415 206.653C146.522 206.567 146.13 204.921 147.446 205.742C147.536 205.799 146.696 206.935 148.294 206.395C149.881 205.862 153.197 205.466 154.996 203.753C155.438 203.342 156.116 201.503 157.612 201.942C157.814 202.003 157.882 202.51 158.202 202.649C159.236 203.084 158.796 201.395 160.218 202.278C161.635 203.162 163.782 203.24 165.359 201.138C165.412 201.073 165.206 199.625 165.856 199.251C166.897 198.655 168.486 197.969 169.523 197.258C170.019 196.918 169.23 196.439 169.308 196.368C172.35 193.722 175.061 192.621 178.587 190.08C179.241 189.611 180.182 187.271 181.908 186.893C183.81 186.454 185.383 190.685 187.574 187.16C188.473 185.702 186.044 180.72 189.909 180.437C193.017 175.902 197.206 172.655 199.398 167.476C199.498 167.243 198.682 165.808 198.999 165.334C199.473 164.627 200.297 164.578 200.648 164.074C202.135 161.966 202.746 159.623 203.927 157.464C204.373 156.639 204.862 157.245 205.386 156.248C205.906 155.247 205.378 154.188 206.399 152.983C207.169 152.074 209.369 151.741 210.15 150.367C208.432 149.624 208.866 148.659 209.038 146.74C209.068 146.372 208.327 146.51 208.31 146.326C208.224 145.573 208.941 145.156 208.803 144.424C208.771 144.246 208.168 144.036 208.107 143.88C207.562 142.562 209.457 141.295 209.784 141.064C211.034 140.197 210.387 139.427 210.989 138.647C211.588 137.86 211.682 139.309 212.18 138.328C213.212 136.293 213.756 133.443 214.203 131.222C214.378 130.332 213.426 130.784 213.432 130.653C213.56 128.796 214.741 127.045 213.198 125.8C217.716 125.107 212.943 124.64 214.095 122.121C214.185 121.925 216.28 121.852 216.499 122.701C216.717 123.555 215.93 124.714 216.248 125.899C216.326 126.175 218.027 127.992 218.106 128.232C218.751 130.057 215.642 129.765 215.462 129.819C213.488 130.468 215.191 132.674 215.224 133.206C215.405 135.589 214.522 137.368 214.481 139.344C214.447 140.634 216.365 141.31 216.023 142.261C214.857 145.432 211.818 145.567 213.056 149.331C213.308 150.14 215.633 150.319 213.113 151.955C212.953 152.066 210.808 153.104 211.323 154.45C211.388 154.62 211.983 154.873 211.964 155.054C211.821 156.261 211.033 156.755 210.721 158.001C210.41 159.244 210.061 160.788 209.198 161.972C208.679 162.691 207.09 163.097 206.633 163.315C205.334 163.92 205.927 165.688 204.672 165.792C203.417 165.882 202.766 163.901 201.25 165.14C202.657 166.064 204.052 167.091 205.439 168.065C203.194 171.656 200.399 174.761 197.879 178.133C197.566 178.552 198.609 178.685 198.288 179.151C196.924 181.119 195.098 182.303 193.654 184.312C192.539 185.868 191.793 188.061 190.533 189.668C188.307 189.189 186.649 191.701 184.914 193.007C184.311 193.463 184.008 193.044 183.497 193.27C181.577 194.116 183.393 194.788 183.144 195.354C182.034 197.776 179.441 194.935 177.341 196.688C177.236 196.777 177.032 199.499 176.897 199.752C176.103 201.365 176.264 199.333 175.374 199.791C173.742 200.618 172.448 200.917 171.009 202.573C170.596 203.055 170.011 204.943 168.461 204.724C168.259 204.695 167.983 204.07 167.854 204.101C165.56 204.703 166.575 206.561 165.764 207.849C164.942 209.141 162.424 208.802 161.867 208.608C160.405 208.125 162.388 207.813 162.389 207.687C162.397 206.236 161.205 207.118 160.155 207.521C159.073 205.73 157.754 206.516 159.07 207.942C159.218 208.097 159.913 207.537 160.155 207.521C160.203 209.791 158.695 210.822 156.167 209.856C154.986 209.395 155.338 208.117 153.034 209.514C151.983 210.137 152.963 211.289 152.1 212.059C150.101 213.825 146.59 213.65 144.217 214.603C143.353 214.95 144.45 215.436 143.863 215.699C142.299 216.398 140.696 216.233 139.12 216.95C138.977 217.016 139.548 217.721 139.034 217.862C135.124 218.94 131.551 219.11 127.385 219.687C125.377 219.975 121.792 220.807 119.67 220.846C117.287 220.911 114.597 220.473 112.135 220.182C110.775 220.023 109.502 219.911 108.398 219.978C106.375 220.087 106.783 220.922 105.871 221.437C104.088 222.439 101.252 220.224 100.904 219.877C100.896 219.868 102.642 219.839 101.76 219.331C101.312 218.402 100.926 219.875 100.904 219.877C100.655 219.668 97.2189 219.067 96.5192 219.109C96.1358 219.141 96.2305 219.944 96.0315 219.945C91.2734 219.95 86.5516 219.145 82.0369 217.483C81.9603 217.445 82.3205 216.639 82.1386 216.56C79.6167 215.429 77.624 215.9 75.2452 215.736C72.8729 215.567 71.2131 214.679 70.5448 212.782C68.8847 212.309 66.8955 210.695 65.8087 209.73C64.721 208.767 63.7965 210.198 63.668 210.174C59.686 209.389 58.1293 207.424 54.7685 205.203C53.1614 204.146 49.8505 202.248 48.0516 201.167C46.6233 200.323 46.068 199.408 44.7108 198.681C44.5274 198.582 44.2272 199.307 44.1596 199.292C42.2518 198.949 44.0475 198.001 43.9779 197.526C43.7384 195.794 43.5573 194.834 41.5656 193.876C41.1128 193.66 38.2593 194.704 37.4635 194.191C36.442 193.527 37.4216 193.131 36.3495 192.448C36.2589 192.388 35.8703 192.835 35.3251 192.28C32.7896 189.711 30.3369 186.637 27.8689 183.843C27.5328 183.458 27.248 184.565 26.7487 184.015C24.4071 181.432 22.0939 178.36 20.5223 175.327C20.1382 174.579 20.9748 174.636 21.0321 174.378C21.3773 172.812 19.1049 172.468 18.933 172.26C14.875 167.476 13.9445 162.568 10.6865 157.176C10.5063 156.898 7.75374 155.16 8.77209 153.463C8.83602 153.344 9.89917 151.683 8.51048 151.12C8.42356 151.083 7.9084 152.062 7.53681 150.839C7.16733 149.62 5.95827 147.864 6.28696 145.915C6.38658 145.291 7.52851 143.603 5.85111 142.398C5.73565 142.342 2.25771 140.616 3.97043 139.224C4.25462 138.998 6.32668 138.641 4.82499 137.009C4.53613 136.694 4.23112 137.464 3.72255 136.567C2.93967 135.182 3.08641 133.11 1.83616 131.437C1.61504 131.151 -0.0382624 129.993 0.86832 128.709C1.01067 128.511 1.75569 128.733 1.74731 128.142C1.71398 125.341 0.926476 122.473 1.21481 119.618C1.31791 118.607 2.48637 119.042 2.72968 117.994C2.9709 116.941 3.18606 114.895 2.64977 113.827C2.11241 112.755 0.311186 113.975 0.150622 112.326C0.130829 112.115 0.113102 111.902 0.0973759 111.69C-0.41898 104.718 1.21931 97.876 2.63158 91.1401C2.85156 90.1088 2.04445 90.8457 2.33688 89.313C3.32321 83.6458 5.73615 73.8287 8.9936 69.7577C11.5359 66.5259 10.3957 71.4275 11.9724 68.8426C12.7296 67.6131 11.4634 65.3192 11.5566 64.9642C12.4159 61.5406 14.3641 59.8305 15.6364 56.9927C15.9027 56.4053 14.847 56.5294 15.0847 56.0316C15.8938 54.3243 17.2502 52.8343 18.1624 51.2904C18.5713 50.5968 17.9438 50.364 18.3958 49.7696C19.4732 48.3482 20.6035 47.2049 22.1115 46.1737C22.2479 46.0814 22.286 47.4074 23.075 46.3784C24.3567 44.708 26.4196 43.0416 27.4892 40.7994C27.8054 40.1342 26.688 39.1336 28.4851 38.6374C28.8644 38.5344 29.9248 40.0283 29.9635 37.6633C29.9557 37.2749 30.5109 33.5938 32.5397 33.4682C33.0711 33.4321 34.809 33.7634 35.2588 33.0031C35.317 32.895 34.42 32.6493 34.8789 32.0933C36.5109 30.1434 38.5338 28.4237 40.3616 26.5539C40.8511 26.0527 39.5189 26.087 40.2717 25.3579C42.343 23.3489 45.3397 21.3236 47.7877 19.9309C48.6916 19.4177 48.4977 20.3918 48.6028 20.4094C50.2779 20.7253 49.9392 18.9788 50.223 18.6737C51.9859 16.8137 54.0211 16.4587 55.8905 15.1274C56.4113 14.7616 55.6298 14.3105 55.704 14.1866C56.5082 12.9363 56.3564 14.6447 57.1539 14.3688C59.3924 13.6038 61.6311 12.3591 63.7045 11.2486C64.464 10.8416 63.197 10.4421 63.8878 10.0859C67.9778 7.96234 72.5092 6.24487 76.9181 5.31776C77.7507 5.14485 77.4627 5.97555 77.6791 6.07258C79.1622 6.75993 80.3831 4.8017 80.7429 4.54776C82.3398 3.39544 83.2138 3.80217 84.7667 3.28746C92.3909 0.711215 102.387 -0.147968 109.911 0.0201931C110.663 0.030386 111.404 0.0502577 112.135 0.0786066C120.919 0.463774 127.952 1.80299 136.376 3.47608C136.957 3.59612 136.577 2.55714 137.083 2.65062C143.622 3.91395 149.758 6.28254 155.982 8.64043C156.495 8.8376 156.112 7.71379 156.951 8.00688C158.676 8.60391 160.743 9.61671 162.262 10.6897C163 11.2101 161.594 11.3521 162.339 11.8609C164.066 13.0478 165.981 14.1528 167.895 15.0974C168.71 15.4996 167.977 14.0291 169.007 14.6179C176.011 18.6268 182.601 23.3199 187.78 29.6846C188.136 30.1234 187.238 31.787 188.318 32.3352C188.733 32.0292 189.145 31.5949 189.55 31.2301C198.188 39.1418 204.781 48.8769 210.201 59.1906C210.43 59.6272 210.884 58.4148 211.332 59.2635C213.917 64.1803 216.361 69.0772 217.334 74.7506C217.429 75.3122 215.729 75.5988 216.491 77.0605C216.633 77.3157 217.595 79.5932 218.124 80.1006C218.203 80.1686 218.838 79.5054 219.088 80.2679C220.523 84.7182 221.421 89.5492 221.662 94.208C221.699 94.9607 220.737 94.3047 220.755 94.839C220.881 98.581 221.925 102.574 221.327 106.191C220.914 108.579 219.406 107.76 217.999 109.029C217.802 109.207 217.793 110.636 216.951 110.716C214.839 110.917 212.518 110.277 210.268 110.574C209.787 110.635 210.313 112.407 209.138 111.36C209.062 111.286 208.66 110.016 208.254 109.715C207.974 109.506 207.128 109.909 206.766 109.481C206.405 109.057 207.108 108.558 206.667 107.855C206.217 107.155 205.266 107.52 205.072 106.108ZM61.0411 205.283C60.3211 203.953 58.6877 206.466 60.266 206.521C60.3442 206.521 61.0799 205.349 61.0411 205.283ZM198.517 173.377C196.485 173.948 197.353 176.008 198.878 175.668C200.411 175.305 199.139 173.192 198.517 173.377ZM206.509 158.17C204.724 159.415 208.348 161.64 208.535 159.359C208.547 159.227 206.613 158.095 206.509 158.17ZM217.298 103.388C217.261 103.408 217.297 104.431 217.337 104.453C218.324 104.936 218.252 102.872 217.298 103.388ZM211.748 142.109C211.032 142.505 211.136 144.341 212.042 143.853C212.778 143.453 212.648 141.603 211.748 142.109ZM18.8012 156.292C18.8323 156.255 18.5614 155.59 18.34 155.71C17.6252 156.099 18.266 156.911 18.8012 156.292ZM216.188 114.016C215.91 118.253 212.204 120.465 212.853 116.053C212.961 115.248 213.886 117.843 214.251 116.83C214.916 114.95 212.749 113.649 213.933 111.726C214.153 111.364 216.217 113.766 216.192 114.024C216.191 114.021 216.189 114.019 216.188 114.016ZM62.1419 201.787C62.1388 201.741 61.2935 201.223 61.2541 201.244C60.3123 201.803 62.0313 202.859 62.1419 201.787ZM10.6461 115.786C10.7223 115.73 10.7373 113.465 10.6645 113.391C9.07895 112.217 9.04149 116.872 10.6461 115.786ZM126.347 211.527C127.257 210.435 128.463 210.128 129.501 211.164C128.452 211.282 127.397 211.438 126.347 211.527Z" fill="white"/>
</svg>
