<svg width="1658" height="673" viewBox="0 0 1658 673" fill="none" xmlns="http://www.w3.org/2000/svg">
<path d="M1569.07 0.000214815C1583.24 0.0373693 1602.02 0.989991 1616.22 3.52883C1620.52 4.30992 1618.34 4.20976 1621.43 4.85338C1627.2 6.10876 1633.2 7.49938 1638.88 10.0118C1640.86 10.9179 1638.21 10.2554 1640.25 11.2053C1645.61 13.8026 1651.08 17.289 1654.61 23.1444C1658.2 28.9975 1658.3 36.3559 1656.7 42.4C1643.02 78.4778 1615.17 100.733 1591.18 126.549C1577.08 141.08 1564.01 155.78 1549.31 171.597C1536.87 185.062 1520.98 201.218 1507.64 215.682C1506.17 217.279 1507.53 216.792 1507.28 217.128C1503.39 222.427 1503.93 219.944 1500.82 222.947C1488.07 235.284 1474.91 248.655 1462.99 260.985C1457.9 266.249 1464.06 262.008 1458.28 266.71C1457.88 267.032 1458.67 265.214 1457.22 266.551C1454.07 269.443 1448.3 275.341 1445.82 277.697C1441.04 282.229 1440.25 283.005 1435.71 287.417C1429.36 293.564 1421.91 300.207 1415.44 306.58C1414.06 307.948 1416.46 306.737 1414.3 308.973C1412.14 311.206 1406.04 316.859 1403.84 318.658C1401.65 320.455 1402.11 319.182 1401.65 319.421C1397.81 321.379 1391.81 329.175 1391.01 329.962C1375.32 345.368 1359.73 358.016 1344.14 371.545C1332.18 381.927 1319.21 393.295 1307.67 402.762C1307.57 402.842 1307.47 402.921 1307.38 403C1293.37 414.465 1280.9 423.906 1267.19 434.69C1265.73 435.836 1268.03 435.243 1266.24 436.644C1247.15 451.619 1227.96 465.785 1207.9 479.256C1205.88 480.606 1207.95 478.125 1205.91 479.433C1193.42 487.509 1173.41 499.146 1168.01 506.984C1159.57 512.42 1149.3 518.888 1141.37 523.032C1136.25 525.707 1140.51 521.976 1134.73 526.053C1133.42 526.97 1135.59 526.537 1133.6 527.861C1125.2 533.433 1115.62 538.944 1107.22 544.366C1105.51 545.468 1106.35 545.79 1105.92 546.19C1102.27 549.525 1094.45 552.087 1092.87 552.845C1080.82 558.674 1072.46 563.7 1061.47 569.554C1058.91 570.908 1062.37 570.13 1059.93 571.46C1047.26 578.342 1033.88 585.028 1020.98 590.778C1018.11 592.054 1020.37 590.089 1018.98 590.661C1012.86 593.179 1012.17 595.157 1006.27 597.54C1005.03 598.042 1005.43 597.11 1005.18 597.145C1001.22 597.685 998.889 600.558 998.007 600.997C986.87 606.559 978.894 608.128 967.928 612.94C966.614 613.515 969.93 613.073 966.214 614.638C941.378 625.095 914.551 634.49 888.82 641.581C884.828 642.68 887.474 641.22 887.202 641.221C882.794 641.281 880.627 643.607 879.347 644.043C869.24 647.44 859.336 648.655 852.766 652.293C808.88 662.65 764.341 670.674 719.557 670.964C718.988 670.97 719.97 670.151 718.837 670.165C705.187 670.249 707.846 671.326 698.805 672.928C696.531 673.327 689.614 671.55 689.009 671.408C686.788 670.914 689.104 669.789 688.36 669.691C682.22 668.896 683.169 672.712 674.809 672.473C674.548 672.458 675.666 671.8 674.968 671.709C672.8 671.424 670.631 671.618 668.512 671.288C663.656 670.514 662.034 668.629 654.535 669.203C653.582 669.268 654.885 671.524 647.413 670.843C644.427 670.601 631.416 669.375 627.766 668.77C624.13 668.205 626.718 667.825 626.46 667.766C616.746 665.67 620.518 665.748 615.788 663.78C611.072 661.786 611.984 665.087 609.924 665.139C607.861 665.199 600.765 663.318 599.04 662.754C597.315 662.201 599.591 662.155 598.045 661.744C587.8 658.98 593.183 662.459 589.699 662.328C581.514 661.979 575.768 658.407 568.56 656.536C566.606 656.025 568.095 656.906 566.33 656.547C559.339 655.094 555.343 653.368 547.274 651.875C545.975 651.642 539.13 651.164 535.371 648.993C534.844 648.685 536.618 648.622 533.783 647.645C529.547 646.194 521.862 643.643 517.193 642.271C513.745 641.26 517.353 643.458 513.156 641.73C511.293 640.955 514.998 641.654 511.485 640.238C507.992 638.847 498.897 635.573 495.433 634.252C491.975 632.952 493.614 634.324 493.318 634.262C491.533 633.878 484.774 631.561 484.187 631.311C455.733 619.892 429.39 605.369 403.616 590.544C401.548 589.349 402.554 590.77 402.235 590.594C395.049 586.629 401.558 588.353 396.984 584.846C396.947 586.497 394.186 584.534 389.161 581.563C386.738 580.127 387.741 581.411 387.493 581.322C383.509 579.793 381.631 577.279 381.12 576.686C379.226 574.49 376.159 573.616 374.869 572.106C373.654 570.649 377.551 572.295 373.083 569.321C371.548 568.899 374.127 572.231 370.614 570.122C357.335 562.316 334.117 543.731 323.992 535.294C314.108 527.188 311.242 524.83 305.741 519.929C295.928 511.053 298.985 514.926 292.482 509.748C285.965 504.478 290.534 505.48 289.969 504.312C289.423 503.154 288.125 502.664 287.217 501.47C286.313 500.28 288.89 502.177 286.405 499.772C283.918 497.384 276.347 491.503 275.09 490.998C272.434 489.961 274.794 493.811 268.316 487.033C267.944 486.642 269.617 487.429 268.173 485.951C268.12 485.897 268.067 485.842 268.015 485.789C256.315 473.843 244.366 462.219 233.6 451.212C232.114 449.691 233.925 450.552 233.066 449.663C224.176 440.458 226.71 444.431 220.931 440.474C223.071 440.334 221.397 437.351 213.675 429.827C209.181 425.445 209.48 426.698 206.27 424.243C205.306 423.506 202.524 420.135 201.743 419.822C199.175 418.782 201.208 422.418 194.15 414.851C193.843 414.52 195.27 415.115 194.18 414C187.183 406.832 185.57 406.776 178.033 399.547C172.51 394.259 160.785 381.789 154.172 375.101C155.491 374.028 148.721 367.893 145.368 366.193C140.958 361.755 136.792 357.707 131.992 352.708C130.454 351.101 131.826 351.792 131.664 351.558C129.193 347.958 126.411 346.746 125.386 345.784C114.012 335.016 107.926 327.751 96.2642 317.098C95.8792 316.749 94.4793 316.907 92.3339 313.581C92.2001 313.367 95.9023 316.405 91.1677 311.549C86.1986 306.451 79.0959 298.39 71.6198 291.415C69.8648 289.785 65.1358 286.152 62.5152 282.45C62.1657 281.955 62.8401 282.214 62.3641 281.474C60.8271 279.098 59.0148 278.762 57.5002 275.864C56.714 274.385 55.4864 272.531 53.3732 270.02C51.0044 267.239 48.0249 264.085 44.5898 260.884C44.3735 260.681 42.2365 259.628 40.3228 257.556C38.7939 255.901 37.0265 253.926 35.3203 252.009C33.4768 249.945 31.1663 247.358 29.5106 245.536C27.8833 243.744 28.5466 245.234 28.2578 244.929C18.4239 234.124 9.84896 225.013 1.27181 210.7C1.10987 210.375 0.917146 209.995 0.729653 209.596C0.538216 209.139 0.38564 209.003 0.0924651 207.841C-0.105626 206.961 -0.00856853 206.147 0.610688 205.707C1.16027 205.31 1.99926 205.242 3.12889 205.448C6.1003 205.975 10.3157 208.233 12.2506 209.587C17.4647 213.272 11.2836 212.123 23.757 219.342C26.6439 221.08 29.6826 222.147 33.3184 223.93C36.9343 225.698 41.3511 228.345 45.1025 231.909C62.7318 243.94 78.0265 256.224 95.3283 268.543C96.1065 269.098 98.9871 270.321 100.803 271.702C103.505 273.758 104.776 275.15 106.63 276.577C114.438 282.592 122.082 288.015 129.644 293.811C132.545 296.034 131.317 295.535 134.786 298.191C138.257 300.846 140.857 302.259 145.425 306C148.878 308.83 151.889 312.247 156.54 315.896C157.243 315.324 160.494 317.813 166.407 322.011C167.542 322.816 166.536 321.674 167.082 322.043C169.309 323.539 171.127 325.231 173.242 326.625C173.756 326.964 173.956 326.749 174.385 327.013C177.991 329.213 183.362 334.105 184.247 334.912C187.718 338.071 189.669 339.076 192.39 341.337C195.101 343.586 190.775 340.589 193.996 343.138C200.965 348.639 209.536 354.989 216.815 360.397C219.662 362.509 217.933 360.78 218.345 361.076C224.284 365.367 229.692 369.794 233.558 371.747C236.628 376.202 237.172 374.186 245.288 380.454C245.962 380.972 246.375 382.289 243.619 380.473C241.053 378.793 237.518 375.926 233.825 373.484C232.994 372.938 227.514 369.941 226.912 369.562C221.752 366.273 221.763 364.659 221.55 364.413C219.024 361.593 212.511 357.863 210.988 356.811C204.055 352.019 198.059 347.298 192.17 343.142C188.34 340.438 187.419 340.881 184.458 338.627C174.506 331.054 171.961 327.485 161.917 321.334C159.771 320.02 161.104 322.33 154.449 316.288C154.031 315.911 149.183 311.3 145.823 309.366C145.401 309.124 145.226 309.379 144.702 309.017C141.19 306.581 139.077 304.677 135.274 301.96C131.477 299.248 126.898 296.029 122.748 292.773C120.273 290.832 117.288 287.836 116.155 286.798C112.934 283.839 108.814 281.625 107.005 279.617C105.184 277.592 109.834 280.09 104.45 275.613C103.726 276.141 102.731 276.495 101.859 276.923C89.2785 267.486 77.277 258.219 64.6834 249.101C63.0878 247.948 64.4258 249.521 62.7139 248.302C55.641 243.274 49.5484 238.47 42.1582 233.471C36.6394 229.748 29.7083 225.642 23.58 221.833C21.8565 220.068 18.8649 217.928 15.4754 215.827C11.3017 213.279 8.06309 211.494 4.35114 209.926C3.28153 209.503 3.17788 209.401 2.64261 209.164C2.39397 209.056 2.20616 208.975 2.0555 208.916C1.91606 208.853 1.78258 208.846 1.97413 208.79C2.15999 208.733 2.63721 208.522 2.97129 208.043C3.28549 207.588 3.28933 207.238 3.29144 207.166C3.28829 207.081 3.2877 207.182 3.33173 207.335C3.36626 207.471 3.47584 207.768 3.49763 207.79C3.66634 208.119 3.85204 208.292 3.99146 208.333C4.28413 208.433 4.42056 208.07 4.81257 208.685C5.25552 209.374 5.76655 210.171 6.29239 210.999C6.5421 211.393 6.86874 211.904 7.05252 212.205C7.20428 212.458 7.34944 212.711 7.48927 212.964C8.05081 213.981 8.51474 214.995 9.05801 216.124C10.0473 218.257 12.0004 221.66 14.7083 224.873C14.9502 225.188 20.2002 229.486 21.0038 230.272C25.5899 234.766 21.6511 231.672 23.7867 234.239C27.6163 238.812 30.4006 242.354 36.5443 248.473C38.2474 250.159 42.0318 253.066 44.6211 256.702C44.9544 257.173 44.432 257.229 44.7303 257.582C50.2519 264.033 51.4952 263.404 55.4376 266.874C59.1727 270.12 63.1796 275.585 64.1089 276.931C66.3197 280.21 61.8218 274.994 61.6515 274.913C59.394 273.735 63.0778 277.358 65.939 280.406C65.3871 281.74 69.5825 285.952 68.9324 283.583C68.8488 283.312 66.4703 281.041 65.939 280.406C69.4042 282.115 74.1116 286.692 78.6353 293.06C80.3842 295.663 77.7718 293.974 84.6619 300.627C87.8385 303.691 87.2996 301.815 90.2696 304.455C96.817 310.242 106.162 320.871 112.029 326.525C114.393 328.813 112.494 326.176 114.128 327.731C118.482 331.867 122.065 335.989 126.741 340.341C127.166 340.735 126.553 339.343 127.972 340.739C139.267 351.834 147.404 360.35 158.413 371.171C163.654 376.323 173.939 385.94 179.601 391.552C188.522 400.403 199.591 412.381 208.193 420.439C213.801 425.695 213.026 424.102 215.702 426.123C221.102 430.242 227.675 438.59 228.496 439.698C228.516 439.728 224.016 435.573 226.145 438.069C227.056 439.858 228.444 439.652 228.496 439.698C229.037 440.422 237.887 449.172 239.804 450.859C240.832 451.761 240.689 450.812 241.217 451.29C251.486 460.605 261.966 470.439 272.723 480.915C275.057 483.189 277.386 485.452 279.714 487.708C279.933 487.931 279.129 488.097 279.651 488.615C286.943 495.855 292.314 499.594 298.839 504.702C305.364 509.796 310.171 514.088 313.09 518.081C317.949 521.976 324.036 527.615 328.19 531.323C332.133 534.864 333.55 534.233 333.93 534.5C345.817 542.641 351.916 548.131 363.679 556.57C369.28 560.601 380.466 567.878 387.222 571.977C392.393 575.127 395.298 577.316 400.119 580.001C400.771 580.363 400.453 579.438 400.66 579.535C406.299 582.057 402.985 581.845 403.93 582.732C407.356 585.924 409.533 587.848 416.521 591.268C418.136 592.063 423.753 592.641 426.644 594.05C430.411 595.891 428.616 595.841 432.604 597.734C432.958 597.901 433.117 597.432 435.606 598.754C447.16 604.879 459.701 611.203 471.805 616.412C473.457 617.124 471.663 615.477 474.052 616.488C485.069 621.149 497.985 626.244 509.158 630.574C511.916 631.646 509.978 631.566 510.528 631.938C513.918 634.214 519.684 634.57 520.559 634.822C541.275 640.806 557.678 646.641 579.544 650.587C580.753 650.818 590.145 651.019 593.99 653.107C594.254 653.25 598.123 655.401 601.925 655.026C602.16 655 599.724 653.858 604.176 654.655C608.632 655.451 615.875 656.012 621.9 657.588C623.804 658.087 628.24 660.098 634.161 659.55C634.561 659.528 643.716 657.777 646.745 659.809C647.242 660.139 646.544 662.038 653.617 661.552C654.966 661.45 652.573 660.866 656.106 660.828C661.514 660.761 668.623 661.625 675.254 660.952C676.414 660.837 681.331 659.65 685.234 660.683C685.847 660.846 684.67 661.48 686.743 661.572C696.591 662.008 706.953 661.397 717.012 661.41C720.576 661.408 718.803 662.547 722.532 662.642C726.26 662.742 733.765 662.534 737.608 661.742C741.447 660.952 737.088 659.62 742.865 658.999C767.942 656.235 792.902 653.521 817.689 648.595C821.362 647.857 818.199 647.896 823.595 646.739C843.563 642.621 877.293 632.803 894.525 628.517C908.379 625.162 891.595 631.445 902.077 628.497C907.148 627.056 911.854 623.298 913.022 622.825C924.455 618.182 932.811 616.062 943.101 611.806C945.224 610.923 942.824 610.964 944.632 610.22C950.796 607.669 957.462 605.386 963.31 602.888C965.936 601.763 965.206 601.379 967.648 600.407C973.487 598.069 978.699 596.108 984.558 594.169C985.093 593.992 981.957 596.246 986.236 594.384C993.156 591.364 1001.95 587.989 1009.54 583.703C1011.79 582.427 1011.25 581.075 1016.68 579.574C1017.81 579.254 1017.25 581.493 1022.39 577.287C1023.26 576.589 1032.04 569.931 1037.37 568.672C1038.78 568.344 1042.63 567.987 1045.28 566.35C1045.63 566.123 1043.77 566.203 1046.02 564.947C1053.92 560.528 1062.34 556.1 1070.36 551.374C1072.5 550.109 1068.87 551.189 1072.07 549.326C1080.87 544.204 1091.99 538.056 1100.67 533.208C1103.88 531.422 1102.04 533.299 1102.31 533.227C1106.63 532.063 1107.98 529.351 1109.16 528.534C1116.48 523.461 1122.63 520.569 1129.46 516.059C1131.34 514.814 1129.57 515.006 1129.92 514.709C1133.49 511.658 1131.3 514.686 1133.88 513.244C1141.09 509.203 1148.76 504.184 1155.74 499.47C1158.29 497.744 1154.9 498.895 1157.2 497.354C1170.79 488.194 1184.66 478.782 1198.01 469.931C1200.53 468.265 1199.38 469.931 1199.99 469.697C1204.17 468.099 1208.43 463.166 1209.52 462.197C1214.49 457.787 1216.92 456.775 1221.54 453.237C1244.18 435.924 1271.97 414.765 1293.21 397.666C1295.3 395.984 1297.36 394.332 1299.37 392.706C1323.62 373.109 1343.28 356.894 1366.52 335.9C1368.1 334.467 1365.88 335.221 1367.24 333.979C1384.42 318.283 1402.39 302.142 1418.93 286.065C1420.37 284.669 1417.69 286.049 1419.98 283.791C1424.67 279.156 1430.63 273.503 1435.45 269.212C1437.8 267.118 1435.27 270.561 1437.62 268.443C1443.15 263.454 1448.45 258.357 1454.11 252.589C1456.44 250.218 1452.28 253.136 1455.34 250.107C1475.83 229.761 1494.85 210.287 1516.3 189.355C1517.7 187.993 1520.03 187.821 1522.61 184.682C1522.5 184.165 1522.12 183.829 1521.87 183.416C1542.62 161.544 1563 139.378 1583.46 118.874C1592.1 110.453 1600.61 102.005 1608.88 93.3276C1610.09 92.0548 1607.51 93.7858 1609.84 91.3314C1623.11 77.0244 1636.44 62.7952 1645.25 46.2034C1645.95 44.658 1646.87 45.7604 1648.31 40.7091C1648.43 40.2192 1648.98 38.1633 1649.1 35.9092C1649.25 33.7435 1648.83 31.5854 1648.5 30.7765C1648.4 30.5731 1648.29 31.8039 1647.69 29.827C1643.21 18.0433 1623.2 13.8017 1607.72 11.0217C1605.16 10.5942 1607.96 10.5901 1606.12 10.2868C1592.84 8.15857 1578.09 7.5083 1565.14 6.6891C1556.43 6.17709 1559.52 5.69607 1555.05 5.02641C1554.43 4.93048 1549.04 4.84837 1548.73 4.53007C1548.01 3.72173 1550.67 2.83751 1549.58 1.97161C1549.42 1.82591 1544.95 1.94557 1544.94 1.79147C1544.94 1.79144 1544.94 1.79142 1544.94 1.7914C1544.94 1.74525 1545.33 1.67387 1546.34 1.56294C1546.66 1.5274 1551.99 1.33803 1553.26 1.18011C1554.15 1.06808 1552.55 0.742541 1554.37 0.593206C1556.19 0.443311 1558.1 0.71936 1561.28 0.564859C1564.36 0.411595 1563.08 -0.00944257 1569.07 0.000214815ZM345.994 546.858C349.454 550.247 351.451 548.725 346.949 546.108C346.73 545.983 345.815 546.684 345.994 546.858ZM78.0138 257.336C73.3729 253.036 69.4257 251.428 72.5862 254.419C75.7704 257.425 79.4366 258.65 78.0138 257.336ZM130.447 296.038C124.915 291.208 122.73 292.19 129.247 296.572C129.626 296.828 130.772 296.32 130.447 296.038ZM1576.51 5.54266C1576.46 5.51919 1572.55 5.32521 1572.45 5.34096C1570.35 5.65024 1578.16 6.04972 1576.51 5.54266ZM182.306 334.678C180.628 333.087 175.11 329.293 177.216 331.292C178.92 332.904 184.405 336.663 182.306 334.678ZM568.652 655.231C568.717 655.288 571.414 655.934 571.409 655.702C571.382 654.963 567.578 654.306 568.652 655.231ZM271.355 399.097C258.097 390.387 250.025 382.89 265.088 393.463C267.717 395.276 259.114 389.932 262.443 392.342C268.202 396.51 273.492 399.012 279.066 402.877C280.189 403.674 272.368 399.8 271.328 399.082C271.337 399.087 271.346 399.092 271.355 399.097ZM346.49 550.826C346.548 550.912 349.631 553.222 349.725 553.248C351.855 553.866 345.649 549.222 346.49 550.826ZM729.838 669.662C730.057 669.742 738.996 669.197 739.28 669.087C743.818 667.323 725.792 668.436 729.838 669.662ZM154.095 374.961C150.641 372.483 147.093 369.07 145.38 366.206C148.215 369.078 151.143 371.986 154.095 374.961Z" fill="white"/>
</svg>
