<svg width="186" height="244" viewBox="0 0 186 244" fill="none" xmlns="http://www.w3.org/2000/svg">
<path d="M103.028 10.486C101.39 13.3922 98.7263 16.8632 96.5665 19.412C95.8905 20.2115 95.7482 19.4889 95.2625 20.0282C94.3134 21.0836 93.7994 22.3097 92.8279 23.3306C92.5039 23.6676 92.1359 22.7423 91.8122 23.1062C90.0442 25.104 88.8327 27.2965 87.2041 29.4269C79.1842 39.9219 71.768 50.5446 64.0909 61.4571C61.5591 65.055 58.0198 69.1259 55.7643 73.0779C55.5014 73.5395 56.2378 73.6445 56.2284 73.7589C56.0605 75.5408 55.2187 74.3597 54.4973 75.1219C51.6371 78.1492 49.0721 81.9191 47.1051 85.3477C46.2699 86.8074 48.2957 86.1232 46.746 87.1282C46.6397 87.1988 46.2898 86.46 45.9731 86.8028C45.2562 87.5812 44.267 89.301 43.7739 89.9452C42.821 91.1851 42.6845 91.4041 41.8636 92.6295C40.7359 94.3012 39.1255 96.1128 38.0623 98.0027C37.8369 98.407 38.7646 98.2844 38.458 98.9639C38.1507 99.6439 37.0226 101.236 36.5209 101.693C36.019 102.15 35.7124 101.614 35.5424 101.642C34.1225 101.856 34.1129 104.547 33.982 104.808C31.5763 109.558 28.3715 112.882 25.6336 117.027C23.5554 120.173 21.5547 123.682 19.542 126.653C17.142 130.191 14.8381 133.012 12.5988 136.509C12.3617 136.878 13.3007 136.88 13.0121 137.33C12.3033 138.437 11.5877 139.537 10.8624 140.628L10.4771 135.59C13.3756 138.849 16.1587 142.189 18.7616 145.704C19.1006 146.163 18.1131 146.067 18.4223 146.552C20.3233 149.515 23.0243 154.478 26.5436 154.085C28.0259 155.917 29.8404 158.127 30.8146 160.082C31.4436 161.342 30.0337 160.838 31.3724 161.876C31.6736 162.11 31.812 161.328 32.2283 161.712C33.9798 163.329 35.558 165.398 37.3601 166.936C37.7277 167.248 38.0525 166.78 38.2167 166.814C39.573 167.124 39.8421 169.43 40.0461 169.801C41.6051 172.628 43.3467 174.149 45.2846 176.345C45.7342 176.854 45.7431 175.765 46.1949 176.238C48.5304 178.699 50.8208 181.364 52.7943 184.056C53.2321 184.656 52.3231 184.561 52.5091 184.868C53.3357 186.218 54.4258 185.701 55.2341 186.982C55.4057 187.251 54.8988 187.469 54.8944 187.55C54.8236 188.823 56.293 188.55 56.4675 188.704C58.6993 190.628 58.9607 192.907 60.9845 194.884C61.2273 195.12 61.2049 194.115 61.8574 194.806C66.2069 199.403 70.5287 204.515 74.3276 209.521C74.9189 210.299 74.1012 210.1 74.0983 210.185C74.0832 211.542 75.4281 211.201 75.6738 211.407C77.5902 213.052 78.3933 215.477 80.604 215.776C86.6768 223.245 93.5082 229.977 99.2669 237.63L96.5003 237.673C97.2029 236.976 97.9164 236.289 98.6428 235.613C98.7403 235.52 99.0208 236.072 99.2133 235.885C101.536 233.641 100.46 233.539 101.017 231.226C101.159 230.644 103.205 230.242 103.37 230.192C103.977 230.018 104.265 230.975 104.431 230.885C105.776 230.116 103.507 228.508 104.781 227.014C104.824 226.97 105.045 227.495 105.19 227.402C105.643 227.115 105.818 226.598 106.276 226.329C107.327 225.717 108.61 226.266 109.149 224.429C109.216 224.196 107.809 223.449 109.003 222.163C109.479 221.651 111.465 219.279 112.103 218.684C112.741 218.089 112.733 218.862 112.79 218.828C114.8 217.474 114.435 218.323 115.928 218.055C117.416 217.783 115.456 216.55 115.569 216.021C115.684 215.493 117.2 214.536 117.614 214.335C118.028 214.135 117.927 214.736 118.249 214.519C120.373 213.071 118.088 212.959 118.341 212.104C118.937 210.088 121.192 210.032 122.454 208.793C122.796 208.458 122.254 208.509 122.502 208.163C123.486 206.794 124.536 206.358 125.411 204.593C125.553 204.304 125.796 202.484 127.001 202.193C127.173 202.153 127.226 202.725 127.76 202.238C128.558 201.511 129.872 200.098 130.512 199.132C130.985 198.42 129.842 198.728 130.693 198.048C131.072 197.746 130.802 198.671 131.488 198.082C132.17 197.496 133.624 195.753 134.173 195.085C134.72 194.419 134.029 194.453 134.048 194.378C134.172 193.93 135.058 192.512 135.154 192.401C139.888 186.745 144.925 182.097 149.363 176.444C149.712 176.001 149.079 175.957 149.128 175.886C150.214 174.278 150.266 176.314 151.483 175.578C150.568 175.059 151.225 174.573 152.018 173.464C152.4 172.929 151.864 172.943 151.872 172.871C152.039 171.74 153.074 171.73 153.308 171.7C154.172 171.588 154.096 170.607 154.678 170.526C155.257 170.443 155.046 171.583 155.882 170.583C155.839 170.068 154.483 170.188 155.005 169.334C156.978 166.112 162.062 161.284 164.06 159.042C166.057 156.807 166.634 156.027 167.861 154.778C170.077 152.522 168.808 152.962 169.839 151.27C170.876 149.574 171.53 151.378 171.986 151.394C172.439 151.414 172.353 150.944 172.725 150.808C173.097 150.673 172.803 151.398 173.38 150.828C173.957 150.257 174.899 148.158 174.801 147.7C174.592 146.73 173.317 146.956 174.925 145.514C175.017 145.431 175.09 146.015 175.428 145.684C177.878 143.268 180.206 140.589 182.605 138.108L182.571 138.563C182.423 138.282 182.276 138.001 182.132 137.72C181.897 137.261 182.539 137.406 182.407 137.136C181.028 134.326 180.936 135.69 179.298 134.694C180.491 134.41 180.603 133.232 179.365 131.217C178.622 130.006 178.32 130.479 177.536 129.883C177.3 129.704 177.067 128.666 176.77 128.635C175.798 128.528 175.557 129.789 174.577 127.53C174.535 127.43 175.072 127.499 174.9 127.171C173.793 125.047 172.961 125.224 171.532 123.071C170.413 121.384 168.945 118.06 167.807 116.055C168.901 115.438 167.513 113.736 166.32 113.434C165.568 112.14 164.683 110.788 164.028 109.494C163.802 109.049 164.277 109.14 164.277 109.067C164.288 107.93 163.244 107.809 163.048 107.551C160.952 104.732 159.986 101.979 157.729 99.448C157.648 99.3584 156.837 99.6329 156.89 98.5516C156.895 98.4804 157.796 99.2211 156.999 97.8669C156.204 96.5117 155.03 93.7563 153.564 92.0979C153.209 91.6966 151.946 90.9066 151.828 89.721C151.813 89.5624 152.094 89.5727 152.098 89.3288C152.102 88.5438 151.21 88.6657 151.395 87.6323C151.581 86.5987 151.165 84.9419 149.602 83.3212C149.554 83.2689 148.732 83.1638 148.378 82.5692C147.814 81.6199 147.105 80.2152 146.497 79.2358C146.205 78.7669 146.054 79.2754 145.997 79.1975C143.866 76.1512 142.782 73.7159 140.824 70.2518C140.465 69.6168 138.922 68.107 138.535 66.6882C138.106 65.1321 140.541 65.5025 138.282 62.7113C137.368 61.5867 134.416 61.2694 134.094 58.4352C131.214 54.3293 129.298 50.0709 126.308 46.0165C126.173 45.834 125.264 45.5554 124.994 45.0985C124.593 44.4198 124.615 43.8982 124.337 43.4091C123.175 41.3557 121.833 39.6482 120.675 37.6918C120.234 36.9495 120.644 37.0513 120.118 36.1664C119.592 35.2824 118.903 34.9012 118.331 33.6162C117.9 32.6448 118.016 31.3374 117.357 30.1019C116.672 30.461 116.182 29.6359 115.115 28.2895C114.909 28.0309 114.867 28.47 114.758 28.3548C114.311 27.8889 114.193 27.2757 113.752 26.8431C113.645 26.7376 113.42 26.8681 113.32 26.7895C112.465 26.1257 112.089 24.3962 112.024 24.0993C111.775 22.9618 111.22 22.6999 110.907 21.9027C110.593 21.1071 111.413 22.0805 110.975 21.1957C110.065 19.3622 108.653 17.1557 107.576 15.388C107.145 14.6835 107.155 15.3388 107.087 15.2421C106.12 13.832 105.514 12.1768 104.455 11.7164C105.286 9.81411 103.775 10.9261 102.786 8.66748C102.709 8.48921 103.26 7.86243 103.749 8.42865C104.237 8.99475 104.613 10.0785 105.308 10.853C105.472 11.0369 106.85 11.8204 106.99 11.9568C108.082 13.0286 107.158 13.8449 107.142 13.947C106.996 15.0835 108.589 16.0963 108.875 16.4457C110.176 18.0469 110.944 19.6149 112.007 20.9697C112.701 21.8564 113.455 21.5203 113.899 22.2789C115.377 24.7995 114.927 26.2742 117.238 28.0838C117.732 28.4721 118.2 27.4951 118.708 29.666C118.741 29.8021 119.008 31.4819 119.844 32.0322C119.949 32.1011 120.176 31.957 120.275 32.0726C120.933 32.85 121.106 33.5323 121.775 34.4088C122.444 35.285 123.275 36.3221 123.86 37.4326C124.214 38.1015 124.291 39.1912 124.375 39.5638C124.606 40.6198 125.69 41.2367 125.65 42.004C125.609 42.7778 124.381 42.0705 125.016 43.6427C125.662 43.3174 126.367 43.0501 127.037 42.754C128.957 45.8735 130.664 49.055 132.636 52.1562C132.882 52.5402 132.974 51.9361 133.246 52.3422C134.393 54.0559 135.103 55.7324 136.333 57.4849C137.286 58.8406 138.615 60.1523 139.628 61.5603C139.447 62.9127 141.058 64.9349 141.978 66.5579C142.3 67.1264 142.076 67.2132 142.257 67.6477C142.941 69.2843 143.173 68.1768 143.533 68.5194C145.077 69.9893 143.653 71.0733 144.973 73.1146C145.041 73.2235 146.69 74.0564 146.856 74.2084C147.919 75.1715 146.692 74.5771 147.088 75.3456C147.811 76.7488 148.191 77.7988 149.41 79.2164C149.766 79.6293 150.969 80.4053 151.122 81.5392C151.142 81.6883 150.826 81.7935 150.869 81.8973C151.658 83.7643 152.555 83.2742 153.458 84.0627C154.362 84.851 154.697 86.722 154.712 87.1354C154.759 88.2129 154.137 86.6421 154.066 86.6261C153.222 86.442 153.995 87.4814 154.471 88.346C153.684 88.9984 154.461 90.1388 154.968 89.2402C155.022 89.1402 154.536 88.5384 154.471 88.346C155.774 88.5598 156.69 89.7745 156.777 91.6863C156.817 92.5817 155.989 92.2218 157.403 94.1452C158.045 95.0183 158.428 94.2923 159.097 94.9996C160.626 96.6148 161.556 99.3645 162.831 101.215C163.295 101.886 163.211 101.006 163.54 101.457C164.414 102.654 164.85 103.916 165.766 105.094C165.85 105.201 166.031 104.703 166.28 105.092C168.177 108.032 169.562 110.756 171.49 113.858C172.421 115.357 174.295 117.908 175.224 119.483C176.837 122.21 178.359 125.851 179.923 128.066C180.942 129.512 181.113 128.952 181.771 129.435C183.045 130.364 183.521 133.105 183.565 133.487C183.566 133.499 182.672 132.265 182.906 133.073C182.749 133.723 183.554 133.474 183.565 133.487C183.595 133.728 185.02 136.2 185.467 136.78C186.082 137.802 185.982 139.401 185.202 140.304C185.189 140.324 185.177 140.342 185.166 140.359C184.992 140.64 185.435 140.775 185.338 140.917C183.03 144.279 180.516 147.476 177.726 150.506C177.673 150.556 177.37 150.157 177.25 150.278C175.556 151.967 175.036 153.525 174.053 155.267C173.069 157.008 171.983 158.13 170.585 158.471C169.718 159.679 168.066 161.067 167.104 161.856C166.142 162.645 166.781 163.409 166.727 163.505C165.051 166.486 163.38 167.616 161.08 170.234C159.985 171.478 157.991 174.095 156.928 175.545C156.088 176.692 155.361 177.194 154.64 178.296C154.543 178.445 155.002 178.6 154.981 178.652C154.462 180.123 154.065 178.87 153.722 178.973C152.474 179.347 151.747 179.615 150.809 181.267C150.591 181.647 151.015 183.648 150.586 184.313C150.025 185.175 149.83 184.505 149.254 185.417C149.204 185.495 149.489 185.711 149.055 186.208C147.047 188.519 144.753 190.95 142.746 193.419C142.471 193.755 143.268 193.7 142.878 194.192C141.048 196.503 138.971 198.976 136.928 201.007C136.424 201.505 136.393 200.9 136.202 200.939C135.036 201.185 135.001 202.905 134.877 203.088C131.916 207.466 128.593 209.923 125.529 214.346C125.362 214.587 124.836 217.081 123.418 217.194C123.323 217.203 121.891 217.289 121.877 218.425C121.877 218.495 122.682 218.368 121.952 219.162C121.222 219.955 120.392 221.523 118.99 222.277C118.547 222.517 117.032 222.686 116.78 224.305C116.766 224.411 116.847 227.307 115.347 227.048C115.101 227.004 114.117 226 113.596 227.745C113.499 228.081 114.108 227.837 113.72 228.61C113.128 229.794 111.749 230.862 111.219 232.486C111.127 232.77 111.112 234.296 109.954 234.55C109.772 234.589 109.59 234.068 109.231 234.416C107.525 236.072 106.185 238.184 104.397 239.818C103.764 240.397 103.451 239.562 102.724 240.109C102.293 240.433 101.662 241.002 101.151 241.607C99.3612 243.679 96.5511 243.76 94.7404 241.706C94.3753 241.302 93.9852 240.953 93.6221 240.771C92.7305 240.324 92.4904 241.905 91.4759 240.947C87.0629 236.784 83.5593 231.878 79.5633 227.352C78.9704 226.68 79.1313 227.535 78.2325 226.568C74.919 223.004 68.9061 217.115 66.7965 213.333C65.1091 210.3 68.4364 213.033 66.9364 210.905C66.2129 209.878 64.1586 209.912 63.9185 209.723C61.5645 207.884 60.6931 205.918 58.7486 204.106C58.3467 203.732 58.2394 204.55 57.9022 204.228C56.7459 203.13 55.8269 201.71 54.7618 200.625C54.2829 200.139 54.0062 200.557 53.61 200.071C52.6578 198.909 51.9127 197.795 51.2657 196.41C51.2069 196.283 52.2663 196.539 51.534 195.704C50.3469 194.356 49.1817 192.405 47.4366 191.195C46.9174 190.837 46.0601 191.577 45.7505 190.082C45.685 189.769 46.935 189.118 45.0242 188.772C44.7058 188.712 41.7775 187.878 41.6858 186.257C41.6612 185.83 41.9204 184.449 41.2919 184.023C41.2034 183.968 41.0171 184.675 40.5599 184.264C38.9561 182.81 37.4804 181.102 35.8412 179.601C35.4024 179.201 35.52 180.279 34.8808 179.67C33.1219 177.995 31.1979 175.659 29.7479 173.779C29.2142 173.084 30.0223 173.169 30.0228 173.083C30.0414 171.691 28.6769 172.107 28.3915 171.908C26.6308 170.656 25.9965 169.067 24.5633 167.742C24.1688 167.375 23.9653 168.07 23.8521 168.029C22.7013 167.575 24.0869 167.437 23.7043 166.838C22.6355 165.158 21.1201 163.578 19.7186 162.167C19.2031 161.65 19.2181 162.74 18.7614 162.27C16.0474 159.501 13.3722 156.49 11.1174 153.432C10.6938 152.856 11.4187 152.806 11.4148 152.61C11.3991 151.248 9.46606 150.971 9.14434 150.797C7.6825 150.003 7.64554 149.217 6.63949 148.259C5.06835 146.769 3.448 145.105 1.83514 143.372C-0.276956 140.977 -0.64188 136.903 1.13757 134.251C3.8365 129.982 6.84905 125.669 9.32154 122.091C14.0489 115.241 18.0225 110.125 22.1953 103.372C22.4611 102.944 21.5125 102.93 21.7326 102.554C24.6035 97.7248 27.8567 93.2502 30.6992 88.3888C30.9335 87.9905 29.9226 88.1231 30.2763 87.4693C30.9971 86.125 32.0705 84.5273 33.1092 83.3714C33.6148 82.8069 33.6347 84.0218 34.1325 83.4463C35.2932 82.1073 36.3591 80.5552 37.229 78.9685C37.5975 78.2922 36.296 78.8237 36.8272 77.9788C40.4322 72.2151 43.9108 66.5137 48.5202 61.3229C48.8361 60.967 50.4677 61.5429 50.7407 60.5247C50.3904 60.2048 49.928 59.9065 49.5276 59.6045C54.6506 51.132 60.4404 43.2174 65.8904 34.9261C66.1198 34.5763 64.9566 34.678 65.3964 33.9979C67.9418 30.0614 70.1812 26.0865 73.5536 22.5641C73.8872 22.2139 75.136 23.3247 75.6875 22.0098C75.7835 21.7771 76.7439 19.8817 76.7383 19.2252C76.733 19.1331 75.8771 19.0325 76.2263 18.4478C78.267 15.0575 80.6552 11.6684 83.1934 8.6125C83.6043 8.12019 83.9358 9.14884 84.2348 8.80235C86.3528 6.34228 87.7167 3.05006 90.0263 0.886755C91.5761 -0.558781 92.3848 0.883033 94.1862 0.756129C94.4406 0.737973 95.1635 -0.312424 95.9019 0.0929884C97.7609 1.1097 99.3546 2.89325 101.376 3.91576C101.712 4.08661 102.091 3.10605 102.44 3.335C102.44 3.33503 102.44 3.33506 102.44 3.3351C102.543 3.40265 102.644 3.57524 102.739 3.91306C102.766 4.01495 102.406 5.25884 102.568 5.73019C102.68 6.05729 103.606 6.20699 103.659 6.75973C103.712 7.3121 102.85 7.31601 102.796 8.13899C102.745 8.96428 103.73 9.23295 103.028 10.486ZM162.772 165.409C161.68 165.97 162.902 167.223 163.371 166.014C163.392 165.954 162.827 165.38 162.772 165.409ZM129.814 49.5545C130.103 51.1163 131.361 51.5317 131.19 50.4099C131.016 49.2896 129.724 49.0797 129.814 49.5545ZM121.369 36.7133C121.906 38.4159 123.576 37.7077 122.287 36.3234C122.213 36.2426 121.337 36.6139 121.369 36.7133ZM91.7583 5.23075C91.7998 5.23925 92.3325 4.49276 92.3118 4.45298C91.789 3.52662 90.7259 5.02072 91.7583 5.23075ZM112.983 23.9741C113.069 24.5559 114.116 25.7393 114.009 25.016C113.923 24.4342 112.875 23.2503 112.983 23.9741ZM123.202 209.363C123.169 209.359 122.725 209.844 122.857 209.938C123.285 210.242 123.762 209.447 123.202 209.363ZM99.3532 1.93911C101.317 5.22557 101.387 7.90815 99.3383 4.27411C98.9665 3.61651 100.551 5.43834 100.15 4.55652C99.4138 2.94515 98.0967 2.38523 97.5358 0.623593C97.4337 0.304969 99.2429 1.75062 99.3584 1.94393C99.3566 1.94232 99.3549 1.94069 99.3532 1.93911ZM160.757 164.56C160.725 164.562 160.121 165.242 160.124 165.274C160.229 166.008 161.444 164.636 160.757 164.56ZM97.4937 237.828C97.4699 237.829 97.3169 237.982 97.1174 238.195L98.6663 238.171C98.2591 237.671 97.5919 236.906 97.533 236.895C96.5569 236.828 97.3354 238.129 98.0784 238.701L97.7215 238.706C97.9848 238.247 98.0197 237.83 97.4937 237.828ZM167.816 116.006C166.877 115.419 166.21 114.436 166.322 113.438C166.809 114.296 167.324 115.145 167.816 116.006Z" fill="white"/>
</svg>
